<?xml version="1.0" encoding="UTF-8"?>
<svg id="Layer_1" xmlns="http://www.w3.org/2000/svg" version="1.1" viewBox="0 0 24 24">
  <!-- Generator: Adobe Illustrator 29.6.1, SVG Export Plug-In . SVG Version: 2.1.1 Build 9)  -->
  <path d="M2.04,11.02H.88c-.34,0-.62.27-.62.62v1.17c0,.34.27.62.62.62h1.17c.34,0,.62-.27.62-.62v-1.17c0-.34-.27-.62-.62-.62Z"/>
  <path d="M6.04,15.02h-1.17c-.34,0-.62.27-.62.62v1.18c0,.34.27.62.62.62h1.17c.34,0,.62-.27.62-.62v-1.18c0-.34-.27-.62-.62-.62Z"/>
  <path d="M6.04,11.02h-1.17c-.34,0-.62.27-.62.62v1.17c0,.34.27.62.62.62h1.17c.34,0,.62-.27.62-.62v-1.17c0-.34-.27-.62-.62-.62Z"/>
  <path d="M10.04,11.02h-1.17c-.34,0-.62.27-.62.62v1.17c0,.34.27.62.62.62h1.17c.34,0,.62-.27.62-.62v-1.17c0-.34-.27-.62-.62-.62Z"/>
  <path d="M15.08,11.01h-1.17c-.34,0-.62.27-.62.62v1.17c0,.34.27.62.62.62h1.17c.34,0,.62-.27.62-.62v-1.17c0-.34-.27-.62-.62-.62Z"/>
  <path d="M19.08,15.01h-1.17c-.34,0-.62.27-.62.62v1.18c0,.34.27.62.62.62h1.17c.34,0,.62-.27.62-.62v-1.18c0-.34-.27-.62-.62-.62Z"/>
  <path d="M19.08,11.01h-1.17c-.34,0-.62.27-.62.62v1.17c0,.34.27.62.62.62h1.17c.34,0,.62-.27.62-.62v-1.17c0-.34-.27-.62-.62-.62Z"/>
  <path d="M23.08,11.01h-1.17c-.34,0-.62.27-.62.62v1.17c0,.34.27.62.62.62h1.17c.34,0,.62-.27.62-.62v-1.17c0-.34-.27-.62-.62-.62Z"/>
  <path d="M2.04,15.02H.88c-.34,0-.62.27-.62.62v1.17c0,.34.27.62.62.62h1.17c.34,0,.62-.27.62-.62v-1.17c0-.34-.27-.62-.62-.62Z"/>
  <path d="M10.04,15.02h-1.17c-.34,0-.62.27-.62.62v1.17c0,.34.27.62.62.62h1.17c.34,0,.62-.27.62-.62v-1.17c0-.34-.27-.62-.62-.62Z"/>
  <path d="M15.08,15.01h-1.17c-.34,0-.62.27-.62.62v1.17c0,.34.27.62.62.62h1.17c.34,0,.62-.27.62-.62v-1.17c0-.34-.27-.62-.62-.62Z"/>
  <path d="M23.08,15.01h-1.17c-.34,0-.62.27-.62.62v1.17c0,.34.27.62.62.62h1.17c.34,0,.62-.27.62-.62v-1.17c0-.34-.27-.62-.62-.62Z"/>
</svg>