<?xml version="1.0" encoding="UTF-8"?>
<svg id="Layer_1" xmlns="http://www.w3.org/2000/svg" version="1.1" viewBox="0 0 24 24">
  <!-- Generator: Adobe Illustrator 29.6.1, SVG Export Plug-In . SVG Version: 2.1.1 Build 9)  -->
  <defs>
    <style>
      .st0 {
        fill: none;
        stroke: #000;
        stroke-linecap: round;
        stroke-linejoin: round;
        stroke-width: 2px;
      }
    </style>
  </defs>
  <path class="st0" d="M12,2v8"/>
  <path class="st0" d="M8,6l4-4,4,4"/>
  <g>
    <path d="M2.65,16.77h-.99c-.29,0-.52.23-.52.52v.99c0,.29.23.52.52.52h.99c.29,0,.52-.23.52-.52v-.99c0-.29-.23-.52-.52-.52Z"/>
    <path d="M6.13,20.3h-.99c-.29,0-.52.23-.52.52v1c0,.29.23.52.52.52h.99c.29,0,.52-.23.52-.52v-1c0-.29-.23-.52-.52-.52Z"/>
    <path d="M5.13,15.25c-.34,0-.51-.17-.51-.52v-1c0-.34.17-.51.51-.51h1c.35,0,.52.17.52.51v1c0,.35-.17.52-.52.52h-1Z"/>
    <path d="M6.13,16.77h-.99c-.29,0-.52.23-.52.52v.99c0,.29.23.52.52.52h.99c.29,0,.52-.23.52-.52v-.99c0-.29-.23-.52-.52-.52Z"/>
    <path d="M9.69,16.77h-.99c-.29,0-.52.23-.52.52v.99c0,.29.23.52.52.52h.99c.29,0,.52-.23.52-.52v-.99c0-.29-.23-.52-.52-.52Z"/>
    <path d="M15.21,16.77h-.99c-.29,0-.52.23-.52.52v.99c0,.29.23.52.52.52h.99c.29,0,.52-.23.52-.52v-.99c0-.29-.23-.52-.52-.52Z"/>
    <path d="M17.72,15.25c-.36,0-.54-.17-.54-.52v-1c0-.34.18-.51.54-.51h.98c.34,0,.51.17.51.51v1c0,.35-.17.52-.51.52h-.98Z"/>
    <path d="M17.72,18.8c-.36,0-.54-.17-.54-.52v-.99c0-.35.18-.52.54-.52h.98c.34,0,.51.17.51.52v.99c0,.35-.17.52-.51.52h-.98Z"/>
    <path d="M22.24,16.77h-.99c-.29,0-.52.23-.52.52v.99c0,.29.23.52.52.52h.99c.29,0,.52-.23.52-.52v-.99c0-.29-.23-.52-.52-.52Z"/>
    <path d="M18.69,20.3h-.99c-.29,0-.52.23-.52.52v1c0,.29.23.52.52.52h.99c.29,0,.52-.23.52-.52v-1c0-.29-.23-.52-.52-.52Z"/>
  </g>
</svg>