<?xml version="1.0" encoding="UTF-8"?>
<svg id="Layer_1" xmlns="http://www.w3.org/2000/svg" version="1.1" viewBox="0 0 24 24">
  <!-- Generator: Adobe Illustrator 29.6.1, SVG Export Plug-In . SVG Version: 2.1.1 Build 9)  -->
  <path d="M8.73,10.72h-1.46c-.42,0-.77.34-.77.77v1.46c0,.42.34.77.77.77h1.46c.42,0,.77-.34.77-.77v-1.46c0-.42-.34-.77-.77-.77Z"/>
  <path d="M12.73,14.72h-1.46c-.42,0-.77.34-.77.77v1.48c0,.42.34.77.77.77h1.46c.42,0,.77-.34.77-.77v-1.48c0-.42-.34-.77-.77-.77Z"/>
  <path d="M12.73,10.72h-1.46c-.42,0-.77.34-.77.77v1.46c0,.42.34.77.77.77h1.46c.42,0,.77-.34.77-.77v-1.46c0-.42-.34-.77-.77-.77Z"/>
  <path d="M16.73,10.72h-1.46c-.42,0-.77.34-.77.77v1.46c0,.42.34.77.77.77h1.46c.42,0,.77-.34.77-.77v-1.46c0-.42-.34-.77-.77-.77Z"/>
  <path d="M8.73,14.72h-1.46c-.42,0-.77.34-.77.77v1.46c0,.42.34.77.77.77h1.46c.42,0,.77-.34.77-.77v-1.46c0-.42-.34-.77-.77-.77Z"/>
  <path d="M16.73,14.72h-1.46c-.42,0-.77.34-.77.77v1.46c0,.42.34.77.77.77h1.46c.42,0,.77-.34.77-.77v-1.46c0-.42-.34-.77-.77-.77Z"/>
</svg>