<?xml version="1.0" encoding="UTF-8"?>
<svg id="Layer_1" xmlns="http://www.w3.org/2000/svg" version="1.1" viewBox="0 0 24 24">
  <!-- Generator: Adobe Illustrator 29.6.1, SVG Export Plug-In . SVG Version: 2.1.1 Build 9)  -->
  <path d="M11.02,2.81c.1-.54.62-.9,1.17-.8.41.08.72.39.8.8l1.05,5.56c.15.81.79,1.44,1.59,1.59l5.56,1.05c.54.1.9.62.8,1.17-.08.41-.39.72-.8.8l-5.56,1.05c-.81.15-1.44.79-1.59,1.59l-1.05,5.56c-.1.54-.62.9-1.17.8-.41-.08-.72-.39-.8-.8l-1.05-5.56c-.15-.81-.79-1.44-1.59-1.59l-5.56-1.05c-.54-.1-.9-.62-.8-1.17.08-.41.39-.72.8-.8l5.56-1.05c.81-.15,1.44-.79,1.59-1.59l1.05-5.56Z"/>
</svg>