<svg width="22" height="10" viewBox="0 0 22 10" fill="none" xmlns="http://www.w3.org/2000/svg">
<g opacity="0.3">
<path d="M1.51 3.5498H0.52C0.232812 3.5498 0 3.78262 0 4.0698V5.0598C0 5.34699 0.232812 5.5798 0.52 5.5798H1.51C1.79719 5.5798 2.03 5.34699 2.03 5.0598V4.0698C2.03 3.78262 1.79719 3.5498 1.51 3.5498Z" fill="#1A1A1A"/>
<path d="M4.91039 7.08008H3.92039C3.6332 7.08008 3.40039 7.31289 3.40039 7.60008V8.60008C3.40039 8.88727 3.6332 9.12008 3.92039 9.12008H4.91039C5.19758 9.12008 5.43039 8.88727 5.43039 8.60008V7.60008C5.43039 7.31289 5.19758 7.08008 4.91039 7.08008Z" fill="#1A1A1A"/>
<path d="M4.02953 2.03C3.68953 2.03 3.51953 1.86 3.51953 1.51V0.51C3.51953 0.17 3.68953 0 4.02953 0H5.02953C5.37953 0 5.54953 0.17 5.54953 0.51V1.51C5.54953 1.86 5.37953 2.03 5.02953 2.03H4.02953Z" fill="#1A1A1A"/>
<path d="M5.02953 3.5498H4.03953C3.75234 3.5498 3.51953 3.78262 3.51953 4.0698V5.0598C3.51953 5.34699 3.75234 5.5798 4.03953 5.5798H5.02953C5.31672 5.5798 5.54953 5.34699 5.54953 5.0598V4.0698C5.54953 3.78262 5.31672 3.5498 5.02953 3.5498Z" fill="#1A1A1A"/>
<path d="M8.55004 3.5498H7.56004C7.27285 3.5498 7.04004 3.78262 7.04004 4.0698V5.0598C7.04004 5.34699 7.27285 5.5798 7.56004 5.5798H8.55004C8.83723 5.5798 9.07004 5.34699 9.07004 5.0598V4.0698C9.07004 3.78262 8.83723 3.5498 8.55004 3.5498Z" fill="#1A1A1A"/>
<path d="M14.0696 3.5498H13.0796C12.7924 3.5498 12.5596 3.78262 12.5596 4.0698V5.0598C12.5596 5.34699 12.7924 5.5798 13.0796 5.5798H14.0696C14.3568 5.5798 14.5896 5.34699 14.5896 5.0598V4.0698C14.5896 3.78262 14.3568 3.5498 14.0696 3.5498Z" fill="#1A1A1A"/>
<path d="M16.6103 2.03C16.2503 2.03 16.0703 1.86 16.0703 1.51V0.51C16.0703 0.17 16.2503 0 16.6103 0H17.5903C17.9303 0 18.1003 0.17 18.1003 0.51V1.51C18.1003 1.86 17.9303 2.03 17.5903 2.03H16.6103Z" fill="#1A1A1A"/>
<path d="M16.6103 5.5798C16.2503 5.5798 16.0703 5.4098 16.0703 5.0598V4.0698C16.0703 3.7198 16.2503 3.5498 16.6103 3.5498H17.5903C17.9303 3.5498 18.1003 3.7198 18.1003 4.0698V5.0598C18.1003 5.4098 17.9303 5.5798 17.5903 5.5798H16.6103Z" fill="#1A1A1A"/>
<path d="M21.0998 3.5498H20.1098C19.8227 3.5498 19.5898 3.78262 19.5898 4.0698V5.0598C19.5898 5.34699 19.8227 5.5798 20.1098 5.5798H21.0998C21.387 5.5798 21.6198 5.34699 21.6198 5.0598V4.0698C21.6198 3.78262 21.387 3.5498 21.0998 3.5498Z" fill="#1A1A1A"/>
<path d="M17.4905 7.08008H16.5005C16.2133 7.08008 15.9805 7.31289 15.9805 7.60008V8.60008C15.9805 8.88727 16.2133 9.12008 16.5005 9.12008H17.4905C17.7777 9.12008 18.0105 8.88727 18.0105 8.60008V7.60008C18.0105 7.31289 17.7777 7.08008 17.4905 7.08008Z" fill="#1A1A1A"/>
</g>
</svg>